<?xml version="1.0" ?><svg id="Layer_1" style="enable-background:new 0 0 50 50;" version="1.1" viewBox="0 0 50 50" xml:space="preserve" xmlns="http://www.w3.org/2000/svg" xmlns:xlink="http://www.w3.org/1999/xlink"><style type="text/css">
	.st0{fill:#414042;}
</style><g><path class="st0" d="M18.5,31.3l5.2-5.1l-2.1-2.2l-4.9,4.5C10.9,28.1,5,30.3,5,30.3v4.2c0,0,7.8-2.2,10.6-2.4S18.5,31.3,18.5,31.3z   "/><path class="st0" d="M28.9,28c0.6-7.1,5.4-10.8,6.4-11.1c0.9-0.2,8.1-2-1.6-5.9s-17.2,1.8-17.2,1.8l8.9,12.5   C25,26.6,25,27.4,25,27.4l-7.7,14.2h-1.9l-0.6,1.2h8.8l0.8-1.2h-2.7l6.1-11.2l0.4-0.8L36.4,41l7.1,1.8v-2.5l-6.8-1.2L28.9,28z    M19.2,14.3c7.5-3.4,13.4,0,13.4,0c-4.1,2.5-6,6.3-6.9,9.1L19.2,14.3z"/><ellipse class="st0" cx="42.4" cy="12.2" rx="2.8" ry="3"/></g></svg>